{
    "asset" : {
        "generator" : "Khronos glTF Blender I/O v1.8.19",
        "version" : "2.0"
    },
    "scene" : 0,
    "scenes" : [
        {
            "name" : "newScene",
            "nodes" : [
                0
            ]
        },
        {
            "name" : "Scene"
        },
        {
            "name" : "Scene.001"
        },
        {
            "name" : "Scene.002"
        },
        {
            "name" : "Scene.003"
        }
    ],
    "nodes" : [
        {
            "mesh" : 0,
            "name" : "Candle",
            "rotation" : [
                0,
                0.2469354271888733,
                0,
                0.9690319299697876
            ],
            "scale" : [
                0.000795558444224298,
                0.000795558444224298,
                0.000795558444224298
            ],
            "translation" : [
                -0.1659889817237854,
                0.7422347664833069,
                -0.41000646352767944
            ]
        }
    ],
    "materials" : [
        {
            "alphaMode" : "BLEND",
            "name" : "Candle.002",
            "normalTexture" : {
                "index" : 0
            },
            "occlusionTexture" : {
                "index" : 1
            },
            "pbrMetallicRoughness" : {
                "baseColorTexture" : {
                    "index" : 2
                },
                "metallicRoughnessTexture" : {
                    "index" : 1
                }
            }
        },
        {
            "alphaMode" : "BLEND",
            "name" : "material",
            "normalTexture" : {
                "index" : 3
            },
            "occlusionTexture" : {
                "index" : 4
            },
            "pbrMetallicRoughness" : {
                "baseColorTexture" : {
                    "index" : 5
                },
                "metallicRoughnessTexture" : {
                    "index" : 4
                }
            }
        },
        {
            "name" : "Wax__Wick",
            "normalTexture" : {
                "index" : 6
            },
            "occlusionTexture" : {
                "index" : 7
            },
            "pbrMetallicRoughness" : {
                "baseColorTexture" : {
                    "index" : 8
                },
                "metallicFactor" : 0,
                "metallicRoughnessTexture" : {
                    "index" : 7
                }
            }
        }
    ],
    "meshes" : [
        {
            "name" : "Circle_Candle_0",
            "primitives" : [
                {
                    "attributes" : {
                        "POSITION" : 0,
                        "NORMAL" : 1,
                        "TEXCOORD_0" : 2
                    },
                    "indices" : 3,
                    "material" : 0
                },
                {
                    "attributes" : {
                        "POSITION" : 4,
                        "NORMAL" : 5,
                        "TEXCOORD_0" : 6
                    },
                    "indices" : 7,
                    "material" : 1
                },
                {
                    "attributes" : {
                        "POSITION" : 8,
                        "NORMAL" : 9,
                        "TEXCOORD_0" : 10
                    },
                    "indices" : 11,
                    "material" : 2
                }
            ]
        }
    ],
    "textures" : [
        {
            "sampler" : 0,
            "source" : 0
        },
        {
            "sampler" : 0,
            "source" : 1
        },
        {
            "sampler" : 0,
            "source" : 2
        },
        {
            "sampler" : 0,
            "source" : 3
        },
        {
            "sampler" : 0,
            "source" : 4
        },
        {
            "sampler" : 0,
            "source" : 5
        },
        {
            "sampler" : 0,
            "source" : 6
        },
        {
            "sampler" : 0,
            "source" : 7
        },
        {
            "sampler" : 0,
            "source" : 8
        }
    ],
    "images" : [
        {
            "bufferView" : 4,
            "mimeType" : "image/png",
            "name" : "Image_8"
        },
        {
            "bufferView" : 5,
            "mimeType" : "image/png",
            "name" : "Image_7"
        },
        {
            "bufferView" : 6,
            "mimeType" : "image/png",
            "name" : "Image_6"
        },
        {
            "bufferView" : 11,
            "mimeType" : "image/png",
            "name" : "Image_2"
        },
        {
            "bufferView" : 12,
            "mimeType" : "image/png",
            "name" : "Image_1"
        },
        {
            "bufferView" : 13,
            "mimeType" : "image/png",
            "name" : "Image_0"
        },
        {
            "bufferView" : 18,
            "mimeType" : "image/png",
            "name" : "Image_5"
        },
        {
            "bufferView" : 19,
            "mimeType" : "image/png",
            "name" : "Image_4"
        },
        {
            "bufferView" : 20,
            "mimeType" : "image/png",
            "name" : "Image_3"
        }
    ],
    "accessors" : [
        {
            "bufferView" : 0,
            "componentType" : 5126,
            "count" : 3180,
            "max" : [
                8.205238342285156,
                118.60995483398438,
                63.37511444091797
            ],
            "min" : [
                -81.44863891601562,
                0.429107666015625,
                -26.278772354125977
            ],
            "type" : "VEC3"
        },
        {
            "bufferView" : 1,
            "componentType" : 5126,
            "count" : 3180,
            "type" : "VEC3"
        },
        {
            "bufferView" : 2,
            "componentType" : 5126,
            "count" : 3180,
            "type" : "VEC2"
        },
        {
            "bufferView" : 3,
            "componentType" : 5123,
            "count" : 16416,
            "type" : "SCALAR"
        },
        {
            "bufferView" : 7,
            "componentType" : 5126,
            "count" : 2679,
            "max" : [
                104.3583984375,
                14.979301452636719,
                14.293355941772461
            ],
            "min" : [
                16.121665954589844,
                0,
                -73.94337463378906
            ],
            "type" : "VEC3"
        },
        {
            "bufferView" : 8,
            "componentType" : 5126,
            "count" : 2679,
            "type" : "VEC3"
        },
        {
            "bufferView" : 9,
            "componentType" : 5126,
            "count" : 2679,
            "type" : "VEC2"
        },
        {
            "bufferView" : 10,
            "componentType" : 5123,
            "count" : 12096,
            "type" : "SCALAR"
        },
        {
            "bufferView" : 14,
            "componentType" : 5126,
            "count" : 1232,
            "max" : [
                6.288764953613281,
                70.12638854980469,
                61.458641052246094
            ],
            "min" : [
                -79.53216552734375,
                2.718128204345703,
                -24.362295150756836
            ],
            "type" : "VEC3"
        },
        {
            "bufferView" : 15,
            "componentType" : 5126,
            "count" : 1232,
            "type" : "VEC3"
        },
        {
            "bufferView" : 16,
            "componentType" : 5126,
            "count" : 1232,
            "type" : "VEC2"
        },
        {
            "bufferView" : 17,
            "componentType" : 5123,
            "count" : 6501,
            "type" : "SCALAR"
        }
    ],
    "bufferViews" : [
        {
            "buffer" : 0,
            "byteLength" : 38160,
            "byteOffset" : 0
        },
        {
            "buffer" : 0,
            "byteLength" : 38160,
            "byteOffset" : 38160
        },
        {
            "buffer" : 0,
            "byteLength" : 25440,
            "byteOffset" : 76320
        },
        {
            "buffer" : 0,
            "byteLength" : 32832,
            "byteOffset" : 101760
        },
        {
            "buffer" : 0,
            "byteLength" : 67451,
            "byteOffset" : 134592
        },
        {
            "buffer" : 0,
            "byteLength" : 624217,
            "byteOffset" : 202044
        },
        {
            "buffer" : 0,
            "byteLength" : 210350,
            "byteOffset" : 826264
        },
        {
            "buffer" : 0,
            "byteLength" : 32148,
            "byteOffset" : 1036616
        },
        {
            "buffer" : 0,
            "byteLength" : 32148,
            "byteOffset" : 1068764
        },
        {
            "buffer" : 0,
            "byteLength" : 21432,
            "byteOffset" : 1100912
        },
        {
            "buffer" : 0,
            "byteLength" : 24192,
            "byteOffset" : 1122344
        },
        {
            "buffer" : 0,
            "byteLength" : 143205,
            "byteOffset" : 1146536
        },
        {
            "buffer" : 0,
            "byteLength" : 373263,
            "byteOffset" : 1289744
        },
        {
            "buffer" : 0,
            "byteLength" : 155901,
            "byteOffset" : 1663008
        },
        {
            "buffer" : 0,
            "byteLength" : 14784,
            "byteOffset" : 1818912
        },
        {
            "buffer" : 0,
            "byteLength" : 14784,
            "byteOffset" : 1833696
        },
        {
            "buffer" : 0,
            "byteLength" : 9856,
            "byteOffset" : 1848480
        },
        {
            "buffer" : 0,
            "byteLength" : 13002,
            "byteOffset" : 1858336
        },
        {
            "buffer" : 0,
            "byteLength" : 60305,
            "byteOffset" : 1871340
        },
        {
            "buffer" : 0,
            "byteLength" : 274930,
            "byteOffset" : 1931648
        },
        {
            "buffer" : 0,
            "byteLength" : 157721,
            "byteOffset" : 2206580
        }
    ],
    "samplers" : [
        {
            "magFilter" : 9729,
            "minFilter" : 9987
        }
    ],
    "buffers" : [
        {
            "byteLength" : 2364304,
            "uri" : "data:application/octet-stream;base64,"
        }
    ]
}
