{
    "asset" : {
        "generator" : "Khronos glTF Blender I/O v1.8.19",
        "version" : "2.0"
    },
    "scene" : 0,
    "scenes" : [
        {
            "name" : "newScene",
            "nodes" : [
                0
            ]
        },
        {
            "name" : "Scene"
        },
        {
            "name" : "Scene.001"
        },
        {
            "name" : "Scene.002"
        },
        {
            "name" : "Scene.003"
        }
    ],
    "nodes" : [
        {
            "mesh" : 0,
            "name" : "chair",
            "scale" : [
                0.8599815964698792,
                0.8599815964698792,
                0.8599815964698792
            ],
            "translation" : [
                0.6265930533409119,
                0.008251190185546875,
                -0.35523462295532227
            ]
        }
    ],
    "materials" : [
        {
            "alphaCutoff" : 0.5,
            "alphaMode" : "MASK",
            "doubleSided" : true,
            "name" : "chair.001",
            "normalTexture" : {
                "index" : 0
            },
            "pbrMetallicRoughness" : {
                "baseColorTexture" : {
                    "index" : 1
                },
                "metallicRoughnessTexture" : {
                    "index" : 2
                }
            }
        }
    ],
    "meshes" : [
        {
            "name" : "Object_3.017",
            "primitives" : [
                {
                    "attributes" : {
                        "POSITION" : 0,
                        "NORMAL" : 1,
                        "TEXCOORD_0" : 2,
                        "TEXCOORD_1" : 3,
                        "TEXCOORD_2" : 4,
                        "TEXCOORD_3" : 5
                    },
                    "indices" : 6,
                    "material" : 0
                }
            ]
        }
    ],
    "textures" : [
        {
            "sampler" : 0,
            "source" : 0
        },
        {
            "sampler" : 0,
            "source" : 1
        },
        {
            "sampler" : 0,
            "source" : 2
        }
    ],
    "images" : [
        {
            "bufferView" : 7,
            "mimeType" : "image/jpeg",
            "name" : "Image_38"
        },
        {
            "bufferView" : 8,
            "mimeType" : "image/png",
            "name" : "Image_36"
        },
        {
            "bufferView" : 9,
            "mimeType" : "image/png",
            "name" : "Image_37"
        }
    ],
    "accessors" : [
        {
            "bufferView" : 0,
            "componentType" : 5126,
            "count" : 964,
            "max" : [
                0.43718862533569336,
                0.9847571849822998,
                0.47856295108795166
            ],
            "min" : [
                -0.5213394165039062,
                0,
                -0.41634494066238403
            ],
            "type" : "VEC3"
        },
        {
            "bufferView" : 1,
            "componentType" : 5126,
            "count" : 964,
            "type" : "VEC3"
        },
        {
            "bufferView" : 2,
            "componentType" : 5126,
            "count" : 964,
            "type" : "VEC2"
        },
        {
            "bufferView" : 3,
            "componentType" : 5126,
            "count" : 964,
            "type" : "VEC2"
        },
        {
            "bufferView" : 4,
            "componentType" : 5126,
            "count" : 964,
            "type" : "VEC2"
        },
        {
            "bufferView" : 5,
            "componentType" : 5126,
            "count" : 964,
            "type" : "VEC2"
        },
        {
            "bufferView" : 6,
            "componentType" : 5123,
            "count" : 4032,
            "type" : "SCALAR"
        }
    ],
    "bufferViews" : [
        {
            "buffer" : 0,
            "byteLength" : 11568,
            "byteOffset" : 0
        },
        {
            "buffer" : 0,
            "byteLength" : 11568,
            "byteOffset" : 11568
        },
        {
            "buffer" : 0,
            "byteLength" : 7712,
            "byteOffset" : 23136
        },
        {
            "buffer" : 0,
            "byteLength" : 7712,
            "byteOffset" : 30848
        },
        {
            "buffer" : 0,
            "byteLength" : 7712,
            "byteOffset" : 38560
        },
        {
            "buffer" : 0,
            "byteLength" : 7712,
            "byteOffset" : 46272
        },
        {
            "buffer" : 0,
            "byteLength" : 8064,
            "byteOffset" : 53984
        },
        {
            "buffer" : 0,
            "byteLength" : 815045,
            "byteOffset" : 62048
        },
        {
            "buffer" : 0,
            "byteLength" : 1219005,
            "byteOffset" : 877096
        },
        {
            "buffer" : 0,
            "byteLength" : 854802,
            "byteOffset" : 2096104
        }
    ],
    "samplers" : [
        {
            "magFilter" : 9729,
            "minFilter" : 9987
        }
    ],
    "buffers" : [
        {
            "byteLength" : 2950908,
            "uri" : "data:application/octet-stream;base64,"
        }
    ]
}
