{
    "asset" : {
        "generator" : "Khronos glTF Blender I/O v1.8.19",
        "version" : "2.0"
    },
    "scene" : 0,
    "scenes" : [
        {
            "name" : "newScene",
            "nodes" : [
                0
            ]
        },
        {
            "name" : "Scene"
        },
        {
            "name" : "Scene.001"
        },
        {
            "name" : "Scene.002"
        },
        {
            "name" : "Scene.003"
        }
    ],
    "nodes" : [
        {
            "mesh" : 0,
            "name" : "keyboard",
            "translation" : [
                0.1180633008480072,
                0.7421941757202148,
                -0.22279447317123413
            ]
        }
    ],
    "materials" : [
        {
            "doubleSided" : true,
            "name" : "keyboard.001",
            "normalTexture" : {
                "index" : 0
            },
            "pbrMetallicRoughness" : {
                "baseColorTexture" : {
                    "index" : 1
                },
                "metallicRoughnessTexture" : {
                    "index" : 2
                }
            }
        }
    ],
    "meshes" : [
        {
            "name" : "Object_3.014",
            "primitives" : [
                {
                    "attributes" : {
                        "POSITION" : 0,
                        "NORMAL" : 1,
                        "TEXCOORD_0" : 2,
                        "TEXCOORD_1" : 3,
                        "TEXCOORD_2" : 4,
                        "TEXCOORD_3" : 5
                    },
                    "indices" : 6,
                    "material" : 0
                }
            ]
        }
    ],
    "textures" : [
        {
            "sampler" : 0,
            "source" : 0
        },
        {
            "sampler" : 0,
            "source" : 1
        },
        {
            "sampler" : 0,
            "source" : 2
        }
    ],
    "images" : [
        {
            "bufferView" : 7,
            "mimeType" : "image/jpeg",
            "name" : "Image_5"
        },
        {
            "bufferView" : 8,
            "mimeType" : "image/jpeg",
            "name" : "Image_3"
        },
        {
            "bufferView" : 9,
            "mimeType" : "image/png",
            "name" : "Image_4"
        }
    ],
    "accessors" : [
        {
            "bufferView" : 0,
            "componentType" : 5126,
            "count" : 3017,
            "max" : [
                0.1405005156993866,
                0.0363808274269104,
                0.3024747967720032
            ],
            "min" : [
                -0.1746121346950531,
                0,
                -0.3758821189403534
            ],
            "type" : "VEC3"
        },
        {
            "bufferView" : 1,
            "componentType" : 5126,
            "count" : 3017,
            "type" : "VEC3"
        },
        {
            "bufferView" : 2,
            "componentType" : 5126,
            "count" : 3017,
            "type" : "VEC2"
        },
        {
            "bufferView" : 3,
            "componentType" : 5126,
            "count" : 3017,
            "type" : "VEC2"
        },
        {
            "bufferView" : 4,
            "componentType" : 5126,
            "count" : 3017,
            "type" : "VEC2"
        },
        {
            "bufferView" : 5,
            "componentType" : 5126,
            "count" : 3017,
            "type" : "VEC2"
        },
        {
            "bufferView" : 6,
            "componentType" : 5123,
            "count" : 8433,
            "type" : "SCALAR"
        }
    ],
    "bufferViews" : [
        {
            "buffer" : 0,
            "byteLength" : 36204,
            "byteOffset" : 0
        },
        {
            "buffer" : 0,
            "byteLength" : 36204,
            "byteOffset" : 36204
        },
        {
            "buffer" : 0,
            "byteLength" : 24136,
            "byteOffset" : 72408
        },
        {
            "buffer" : 0,
            "byteLength" : 24136,
            "byteOffset" : 96544
        },
        {
            "buffer" : 0,
            "byteLength" : 24136,
            "byteOffset" : 120680
        },
        {
            "buffer" : 0,
            "byteLength" : 24136,
            "byteOffset" : 144816
        },
        {
            "buffer" : 0,
            "byteLength" : 16866,
            "byteOffset" : 168952
        },
        {
            "buffer" : 0,
            "byteLength" : 491570,
            "byteOffset" : 185820
        },
        {
            "buffer" : 0,
            "byteLength" : 388056,
            "byteOffset" : 677392
        },
        {
            "buffer" : 0,
            "byteLength" : 842594,
            "byteOffset" : 1065448
        }
    ],
    "samplers" : [
        {
            "magFilter" : 9729,
            "minFilter" : 9987
        }
    ],
    "buffers" : [
        {
            "byteLength" : 1908044,
            "uri" : "data:application/octet-stream;base64,"
        }
    ]
}
