{
	"asset":{
		"generator":"Khronos glTF Blender I/O v3.5.30",
		"version":"2.0"
	},
	"scene":0,
	"scenes":[
		{
			"name":"Scene",
			"nodes":[
				0
			]
		}
	],
	"nodes":[
		{
			"mesh":0,
			"name":"Monitor"
		}
	],
	"materials":[
		{
			"doubleSided":true,
			"emissiveFactor":[
				1,
				1,
				1
			],
			"emissiveTexture":{
				"index":0
			},
			"name":"macEmissive",
			"pbrMetallicRoughness":{
				"baseColorTexture":{
					"index":1
				},
				"metallicFactor":0,
				"roughnessFactor":0.5
			}
		}
	],
	"meshes":[
		{
			"name":"Object_3.019",
			"primitives":[
				{
					"attributes":{
						"POSITION":0,
						"TEXCOORD_0":1,
						"TEXCOORD_1":2,
						"TEXCOORD_2":3,
						"TEXCOORD_3":4,
						"NORMAL":5
					},
					"indices":6,
					"material":0
				}
			]
		}
	],
	"textures":[
		{
			"sampler":0,
			"source":0
		},
		{
			"sampler":0,
			"source":0
		}
	],
	"images":[
		{
			"bufferView":7,
			"mimeType":"image/png",
			"name":"Image_0"
		}
	],
	"accessors":[
		{
			"bufferView":0,
			"componentType":5126,
			"count":14,
			"max":[
				-0.12272390723228455,
				1.2630635499954224,
				0.19974613189697266
			],
			"min":[
				-0.15278711915016174,
				1.0209283828735352,
				-0.13633865118026733
			],
			"type":"VEC3"
		},
		{
			"bufferView":1,
			"componentType":5126,
			"count":14,
			"type":"VEC2"
		},
		{
			"bufferView":2,
			"componentType":5126,
			"count":14,
			"type":"VEC2"
		},
		{
			"bufferView":3,
			"componentType":5126,
			"count":14,
			"type":"VEC2"
		},
		{
			"bufferView":4,
			"componentType":5126,
			"count":14,
			"type":"VEC2"
		},
		{
			"bufferView":5,
			"componentType":5126,
			"count":14,
			"type":"VEC3"
		},
		{
			"bufferView":6,
			"componentType":5123,
			"count":18,
			"type":"SCALAR"
		}
	],
	"bufferViews":[
		{
			"buffer":0,
			"byteLength":168,
			"byteOffset":0,
			"target":34962
		},
		{
			"buffer":0,
			"byteLength":112,
			"byteOffset":168,
			"target":34962
		},
		{
			"buffer":0,
			"byteLength":112,
			"byteOffset":280,
			"target":34962
		},
		{
			"buffer":0,
			"byteLength":112,
			"byteOffset":392,
			"target":34962
		},
		{
			"buffer":0,
			"byteLength":112,
			"byteOffset":504,
			"target":34962
		},
		{
			"buffer":0,
			"byteLength":168,
			"byteOffset":616,
			"target":34962
		},
		{
			"buffer":0,
			"byteLength":36,
			"byteOffset":784,
			"target":34963
		},
		{
			"buffer":0,
			"byteLength":837611,
			"byteOffset":820
		}
	],
	"samplers":[
		{
			"magFilter":9729,
			"minFilter":9987
		}
	],
	"buffers":[
		{
			"byteLength":838432,
			"uri":"data:application/octet-stream;base64,"
		}
	]
}
